<svg xmlns="http://www.w3.org/2000/svg" viewBox="0 0 178.77 50.14"><defs><style>.cls-1{fill:#2b0e45;}.cls-2{fill:none;stroke:#231f20;stroke-linecap:round;stroke-linejoin:round;stroke-width:2.39px;}</style></defs><g id="Layer_2" data-name="Layer 2"><g id="Layer_1-2" data-name="Layer 1"><path class="cls-1" d="M3.58,21.21c1.65-.28,1.93-.61,1.93-1.93V5.47A2.5,2.5,0,0,0,3.58,2.72V2L9.83,1h.85V19.28c0,1.32.44,1.65,1.76,1.93V22H3.58Z"/><path class="cls-1" d="M28.54,18.29a8.13,8.13,0,0,1-7.21,4c-4,0-7.81-2.2-7.81-7.46,0-5,3.44-8.17,8.53-8.17,5.39,0,6.62,3.5,6.38,7.38H18.86c.13,4.09,2,5.41,4.42,5.41a5.9,5.9,0,0,0,4.32-1.73Zm-9.66-5.72h4.84c.09-3.11-.71-4.46-2.09-4.46C20,8.11,19.08,10,18.88,12.57Z"/><path class="cls-1" d="M30.31,21.32V17.19h.85a5.8,5.8,0,0,0,5.09,3.74A2.06,2.06,0,0,0,38.56,19c0-.77-.5-1.43-2.37-2.09L35,16.5c-2.95-1-4.6-2.28-4.6-4.92,0-3.08,2.48-4.9,6.19-4.9a15.25,15.25,0,0,1,5.28,1v3.66h-.85c-1-2-2.69-3.25-4.54-3.25-1.4,0-2.09.74-2.09,1.73s.61,1.49,2.37,2.12l1.18.41c3.14,1.1,4.57,2.31,4.57,4.87,0,3.19-2.59,5.12-6.52,5.12A16.65,16.65,0,0,1,30.31,21.32Z"/><path class="cls-1" d="M66.24,7v.78c-.72.16-1.37,1.18-2,2.64L59,22H56.8L51.25,10.43C50.56,9,50,8,49.24,7.79V7H58.1v.78c-1.46.16-2,1.18-1.43,2.58l2.89,6.57,2.09-5.11c1-2.45-.42-3.83-1.49-4V7Z"/><path class="cls-1" d="M81.49,18.29a8.14,8.14,0,0,1-7.21,4c-4,0-7.81-2.2-7.81-7.46,0-5,3.44-8.17,8.53-8.17,5.39,0,6.62,3.5,6.38,7.38H71.8c.14,4.09,2,5.41,4.43,5.41a5.9,5.9,0,0,0,4.32-1.73Zm-9.66-5.72h4.84c.09-3.11-.71-4.46-2.09-4.46C73,8.11,72,10,71.83,12.57Z"/><path class="cls-1" d="M83.26,21.21c1.65-.28,1.92-.61,1.92-1.93v-8A2.5,2.5,0,0,0,83.26,8.5V7.73l6.24-.94h.85V19.28c0,1.32.44,1.65,1.76,1.93V22H83.26ZM84.8,2.75A2.72,2.72,0,0,1,87.63,0a2.56,2.56,0,0,1,2.83,2.64,2.73,2.73,0,0,1-2.83,2.78A2.58,2.58,0,0,1,84.8,2.75Z"/><path class="cls-1" d="M93.6,21.21c1.66-.28,1.93-.61,1.93-1.93V5.47A2.5,2.5,0,0,0,93.6,2.72V2L99.85,1h.85V19.28c0,1.32.44,1.65,1.76,1.93V22H93.6Z"/><path class="cls-1" d="M104,21.21c1.65-.28,1.93-.61,1.93-1.93V5.47A2.5,2.5,0,0,0,104,2.72V2L110.19,1h.86V19.28c0,1.32.44,1.65,1.76,1.93V22H104Z"/><path class="cls-1" d="M128.9,18.29a8.13,8.13,0,0,1-7.2,4c-4,0-7.81-2.2-7.81-7.46,0-5,3.43-8.17,8.52-8.17,5.39,0,6.63,3.5,6.38,7.38h-9.57c.14,4.09,2,5.41,4.43,5.41A5.92,5.92,0,0,0,128,17.74Zm-9.65-5.72h4.84c.08-3.11-.71-4.46-2.09-4.46C120.4,8.11,119.44,10,119.25,12.57Z"/><path class="cls-1" d="M149.38,20.49v.77l-5.7.94H143l-.55-2.92h-.09a5.78,5.78,0,0,1-5.39,3c-3.54,0-5-2.07-5-5.5V11.25A2.5,2.5,0,0,0,130,8.5V7.73l6.24-.94h.86v9.8c0,2.17.71,3.13,2.2,3.13,1.9,0,2.94-1.81,2.94-4.78V11.25a2.5,2.5,0,0,0-1.92-2.75V7.73l6.24-.94h.85V18C147.45,19.34,147.73,20.22,149.38,20.49Z"/><path class="cls-1" d="M164.21,8.75a6.72,6.72,0,0,1-.85,2.94l-1.87-.88a4,4,0,0,0-1.76-.5c-1.43,0-1.87,1-1.87,2.23v6.74c0,1.32.44,1.65,2,1.93V22h-9.14v-.77c1.65-.28,1.93-.61,1.93-1.93v-8a2.5,2.5,0,0,0-1.93-2.75V7.73L157,6.79h.71v3.44h.11c.85-2.09,2.34-3.55,4.16-3.55A1.93,1.93,0,0,1,164.21,8.75Z"/><path class="cls-1" d="M165,21.32V17.19h.85a5.81,5.81,0,0,0,5.09,3.74A2,2,0,0,0,173.24,19c0-.77-.49-1.43-2.36-2.09l-1.16-.42c-2.94-1-4.59-2.28-4.59-4.92,0-3.08,2.47-4.9,6.19-4.9a15.37,15.37,0,0,1,5.28,1v3.66h-.85c-1.05-2-2.7-3.25-4.54-3.25-1.41,0-2.09.74-2.09,1.73s.6,1.49,2.36,2.12l1.19.41c3.13,1.1,4.56,2.31,4.56,4.87,0,3.19-2.58,5.12-6.52,5.12A16.7,16.7,0,0,1,165,21.32Z"/><path class="cls-1" d="M56.05,46.52l.27.75c-2.24,1.67-4.6,2.81-6.15,2.81-1.22,0-1.7-.69-1.7-1.79a5.78,5.78,0,0,1,.18-1.35l1-4.21h-.12c-1.91,4.66-4.53,7.35-7.79,7.35-2.66,0-3.88-1.79-3.88-4.54,0-6.36,4.39-12.42,10.66-12.42a6.41,6.41,0,0,1,2.6.51l1-4.69H49.66l.21-1,7.29-1.67.65.36L53.54,47.12Zm-5.28-11a3.69,3.69,0,0,0-2.15-.75c-3.4,0-5.41,7.13-5.41,11.26,0,1,.24,1.52.9,1.52C46.29,47.51,49.37,41.6,50.77,35.48Z"/><path class="cls-1" d="M72.22,44.05l.83.56c-2.45,3.26-5.85,5.47-8.83,5.47-4.15,0-6-2.81-6-6.15,0-4.84,3.94-10.81,10.6-10.81,3.31,0,5,1.52,5,3.52,0,2.9-3.55,4.48-10.09,6.06,0,3,1.34,4.24,3,4.24S70.19,45.9,72.22,44.05Zm-8.48-2.69c4.33-1.44,5.49-3.14,5.49-4.81,0-1.13-.54-1.88-1.52-1.88C65.53,34.67,64.07,38.31,63.74,41.36Z"/><path class="cls-1" d="M99.91,47.75c-2.39,1.34-4.69,2.33-6.21,2.33a1.6,1.6,0,0,1-1.79-1.83,5.25,5.25,0,0,1,.21-1.31l2-8.39a10.89,10.89,0,0,0,.42-2c0-.39-.15-.63-.53-.63-1.83,0-5.23,4.87-7,13l-.09.45-4.63.72-.66-.36,2.93-14.1H82.17l.21-1,6.87-1.67.66.36-1.47,7h.06c1.88-4.15,4.6-7.34,8.18-7.34,2.21,0,3,1.22,3,3.07a12.46,12.46,0,0,1-.45,2.9L97.13,47.3l2.6-.33Z"/><path class="cls-1" d="M115.92,44.05l.84.56c-2.45,3.26-5.85,5.47-8.84,5.47-4.15,0-6-2.81-6-6.15,0-4.84,3.94-10.81,10.6-10.81,3.31,0,5,1.52,5,3.52,0,2.9-3.56,4.48-10.1,6.06,0,3,1.35,4.24,3.05,4.24C112,46.94,113.89,45.9,115.92,44.05Zm-8.48-2.69c4.33-1.44,5.5-3.14,5.5-4.81,0-1.13-.54-1.88-1.53-1.88C109.24,34.67,107.77,38.31,107.44,41.36Z"/><path class="cls-1" d="M144.39,34.7c0,3.37-6.39,11-9.95,14.69l-2.39.6-1-7.53a82.87,82.87,0,0,1-5.85,6.93l-2.39.6-1.91-14.31h-2l.21-1,6.86-1.67L127,45.33a35.76,35.76,0,0,0,3.61-6.18L130,34.34l5.23-1.28,1,12.18c2-3,3.89-6.48,3.89-8.33,0-.81-.33-1.29-1.17-1.29-.18,0-.39,0-.6.06l.21-1a10.36,10.36,0,0,1,4.33-1.61C144,33.12,144.39,33.8,144.39,34.7Z"/><path class="cls-1" d="M143.56,46.55a2.79,2.79,0,0,1,1.71-2.5l1.16,1.49c1.4,1.79,2.45,3,3.76,3a1.6,1.6,0,0,0,1.67-1.7c0-.83-.44-1.64-1.94-2.78l-1.07-.8c-2.27-1.7-3.22-3.17-3.22-4.66,0-3.1,3.13-5.52,7.22-5.52,2.6,0,4.78,1.19,4.78,3a2.43,2.43,0,0,1-1.7,2.24l-1.14-1.46c-.77-1-1.94-2.27-3.25-2.27a1.61,1.61,0,0,0-1.65,1.67c0,.84.54,1.46,2.1,2.63l1.07.81c2.15,1.61,3.08,3,3.08,4.68,0,3.41-3.29,5.68-7.29,5.68C145.89,50.08,143.56,48.58,143.56,46.55Z"/><line class="cls-2" x1="1.2" y1="45.3" x2="29.19" y2="45.3"/><line class="cls-2" x1="29.19" y1="38.52" x2="16.08" y2="38.52"/><line class="cls-2" x1="177.58" y1="42.38" x2="164.47" y2="42.38"/></g></g></svg>