<svg xmlns="http://www.w3.org/2000/svg" viewBox="0 0 19.64 19.64"><defs><style>.cls-1{fill:#2b0e45;}</style></defs><g id="Layer_2" data-name="Layer 2"><g id="Layer_1-2" data-name="Layer 1"><path class="cls-1" d="M19.05,6.48,17.5,8.35a8,8,0,0,1,.14,1.47,7.83,7.83,0,1,1-2.11-5.34l1.11-1.34.18-.2a9.84,9.84,0,1,0,2.23,3.54Z"/><path class="cls-1" d="M9.8,15.49H9.73A1,1,0,0,1,9,15L4.65,8.26A1,1,0,0,1,5,6.88a1,1,0,0,1,1.38.31L9.9,12.8l7.5-9a1,1,0,0,1,1.41-.13,1,1,0,0,1,.13,1.4L10.56,15.13A1,1,0,0,1,9.8,15.49Z"/></g></g></svg>